#!OML:ASF H:\Terrain\Patient Classification 1\Animal1\Tuesday\Animal1.ASF
:FULLY-SPECIFIED
:DEGREES
2468
root 7.75112 15.7815 -5.57259 -167.858 -170.511 -181.532
lowerback 17.526 -3.20838 3.42053
upperback 1.66902 -3.19803 4.45992
thorax -7.95264 -1.58364 3.64578
lowerneck 2.6086 -11.0474 -11.6746
upperneck -21.4575 -13.5371 17.2171
head -4.66558 -7.22532 7.82589
rclavicle 4.53229e-014 -3.26007e-014
rhumerus -31.9474 -36.5821 -23.9282
rradius 102
rwrist 8.07149
rhand -3.1301 15.3864
rfingers 7.12502
rthumb 22.5891 -13.312
lclavicle 4.53229e-014 -3.26007e-014
lhumerus -50.279 32.4257 42.6434
lradius 106.504
lwrist -53.0793
lhand 3.57183 54.8966
lfingers 7.12502
lthumb 29.0068 82.6592
rfemur -39.8295 9.41616 13.8973
rtibia 44.0522
rfoot -9.31196 -17.9018
rtoes -22.583
lfemur -35.7096 -13.7025 -1.29139
ltibia 43.1554
lfoot -16.5868 17.0912
ltoes -11.5316
2469
root 7.69839 15.7883 -5.56961 -167.767 -170.426 -181.267
lowerback 17.4641 -3.12909 3.11665
upperback 1.57721 -3.15157 4.46348
thorax -8.00315 -1.55088 3.81063
lowerneck 2.72766 -11.044 -11.5428
upperneck -21.3704 -13.573 16.9643
head -4.68922 -7.23419 7.72982
rclavicle 3.18055e-015 -3.18055e-015
rhumerus -31.6989 -36.5842 -24.0423
rradius 101.984
rwrist 7.84321
rhand -3.02063 15.3388
rfingers 7.12502
rthumb 22.6942 -13.3468
lclavicle 3.18055e-015 -3.18055e-015
lhumerus -50.1615 32.2039 42.8571
lradius 106.377
lwrist -52.6772
lhand 3.55543 54.8921
lfingers 7.12502
lthumb 28.9912 82.6573
rfemur -39.9849 9.32817 13.8051
rtibia 44.0926
rfoot -9.64056 -17.6475
rtoes -21.6908
lfemur -35.4718 -13.4993 -1.3082
ltibia 42.4855
lfoot -15.6069 17.1389
ltoes -15.9261
2470
root 7.6532 15.7942 -5.56648 -167.607 -170.345 -180.872
lowerback 17.2088 -3.09379 2.84326
upperback 1.54995 -3.18088 4.35489
thorax -7.88187 -1.55914 3.83717
lowerneck 2.83221 -11.0112 -11.3198
upperneck -21.4827 -13.5341 16.8125
head -4.77859 -7.22217 7.66726
rclavicle 7.39479e-014 -2.14687e-014
rhumerus -31.2074 -36.7134 -24.4609
rradius 101.799
rwrist 7.85957
rhand -3.23566 15.0118
rfingers 7.12502
rthumb 22.4878 -13.6989
lclavicle 7.39479e-014 -2.14687e-014
lhumerus -49.845 32.1887 43.0687
lradius 106.226
lwrist -52.6511
lhand 3.77755 54.4308
lfingers 7.12502
lthumb 29.2033 82.1594
rfemur -40.2598 9.22394 13.5024
rtibia 44.1256
rfoot -10.101 -17.3527
rtoes -19.9218
lfemur -35.3097 -13.2733 -1.49284
ltibia 41.8243
lfoot -12.0804 18.1285
ltoes -29.2535
2471
root 7.60729 15.8002 -5.56215 -167.494 -170.285 -180.633
lowerback 16.9239 -3.08365 2.78744
upperback 1.58143 -3.20477 4.25248
thorax -7.69226 -1.57273 3.74124
lowerneck 2.76958 -11.0359 -11.3208
upperneck -21.3557 -13.5574 16.888
head -4.71835 -7.23782 7.67578
rclavicle -6.0033e-014 5.40694e-014
rhumerus -30.8501 -36.6647 -24.9471
rradius 101.717
rwrist 7.72451
rhand -3.43886 14.1755
rfingers 7.12502
rthumb 22.2927 -14.5586
lclavicle -6.0033e-014 5.40694e-014
lhumerus -49.4961 32.2579 43.2745
lradius 106.069
lwrist -52.7299
lhand 4.30707 54.4876
lfingers 7.12502
lthumb 29.7088 82.1272
rfemur -40.4504 9.16423 13.3904
rtibia 44.1421
rfoot -10.714 -17.0637
rtoes -18.2943
lfemur -35.0632 -13.0151 -1.54613
ltibia 41.2188
lfoot -13.794 17.1634
ltoes -21.4478
2472
root 7.55986 15.8101 -5.55568 -167.474 -170.262 -180.652
lowerback 16.7864 -3.05795 2.84234
upperback 1.6558 -3.17137 4.26915
thorax -7.5392 -1.55994 3.70688
lowerneck 2.93551 -11.0323 -11.5526
upperneck -21.4655 -13.5247 17.2663
head -4.72961 -7.24121 7.84876
rclavicle -4.17448e-014 1.59028e-014
rhumerus -30.5378 -36.6216 -25.4413
rradius 101.771
rwrist 7.69157
rhand -4.11155 13.0096
rfingers 7.12502
rthumb 21.6468 -15.8004
lclavicle -4.17448e-014 1.59028e-014
lhumerus -49.1461 32.2913 43.493
lradius 105.914
lwrist -52.7169
lhand 4.52518 54.6626
lfingers 7.12502
lthumb 29.917 82.2648
rfemur -40.4215 9.21379 13.5936
rtibia 44.1126
rfoot -11.0468 -17.0659
rtoes -17.9007
lfemur -34.717 -12.8694 -1.31584
ltibia 40.7925
lfoot -11.8146 17.4399
ltoes -29.4349
2473
root 7.51613 15.82 -5.55214 -167.366 -170.287 -180.697
lowerback 16.7086 -3.02807 2.88043
upperback 1.68208 -3.12514 4.34613
thorax -7.46743 -1.53857 3.7513
lowerneck 3.02395 -11.0154 -11.5188
upperneck -21.7015 -13.5001 17.2278
head -4.82667 -7.2324 7.85704
rclavicle 2.5842e-014 -1.19271e-014
rhumerus -30.1358 -36.7662 -25.7778
rradius 101.706
rwrist 7.86925
rhand -4.08996 12.9821
rfingers 7.12502
rthumb 21.6676 -15.8254
lclavicle 2.5842e-014 -1.19271e-014
lhumerus -48.8717 32.3293 43.8706
lradius 105.827
lwrist -52.6809
lhand 3.99993 54.5856
lfingers 7.12502
lthumb 29.4156 82.2771
rfemur -40.4241 9.16843 13.8563
rtibia 44.073
rfoot -11.1636 -16.9549
rtoes -16.9747
lfemur -34.5809 -12.8192 -0.975009
ltibia 40.5069
lfoot -14.9551 15.8676
ltoes -16.9683
2474
root 7.48265 15.8289 -5.55016 -167.218 -170.432 -180.816
lowerback 16.6836 -3.08553 3.21942
upperback 1.60974 -3.13048 4.41465
thorax -7.54656 -1.54966 3.63807
lowerneck 2.90485 -11.0165 -11.5282
upperneck -21.5114 -13.5491 16.917
head -4.77155 -7.22582 7.73786
rclavicle -4.73108e-014 6.36111e-015
rhumerus -29.809 -36.7563 -25.8889
rradius 101.464
rwrist 7.86408
rhand -3.18313 14.0079
rfingers 7.12502
rthumb 22.5382 -14.6966
lclavicle -4.73108e-014 6.36111e-015
lhumerus -48.9056 32.3295 44.0277
lradius 105.913
lwrist -52.7638
lhand 4.30148 54.8954
lfingers 7.12502
lthumb 29.7035 82.5359
rfemur -40.3919 8.96135 14.2002
rtibia 43.9892
rfoot -11.305 -16.6626
rtoes -15.9128
lfemur -34.5508 -12.7804 -0.550901
ltibia 40.3359
lfoot -16.347 14.7451
ltoes -10.9519
2475
root 7.45853 15.836 -5.54475 -167.298 -170.645 -180.973
lowerback 16.8671 -3.21781 3.73271
upperback 1.57302 -3.1928 4.4309
thorax -7.71331 -1.59376 3.39639
lowerneck 2.92033 -10.9641 -11.4434
upperneck -21.3444 -13.5205 16.6373
head -4.76132 -7.19382 7.62905
rclavicle -5.60573e-014 6.59965e-014
rhumerus -29.5066 -36.614 -26.0843
rradius 101.223
rwrist 7.92643
rhand -2.77486 14.6073
rfingers 7.12502
rthumb 22.93 -14.0492
lclavicle -5.60573e-014 6.59965e-014
lhumerus -48.9919 32.3131 43.9416
lradius 105.94
lwrist -52.7789
lhand 4.79542 55.1472
lfingers 7.12502
lthumb 30.1748 82.7027
rfemur -40.078 8.70846 14.5799
rtibia 43.8706
rfoot -11.4969 -16.5473
rtoes -16.0944
lfemur -34.3154 -12.8523 -0.19472
ltibia 40.2167
lfoot -16.9731 14.2194
ltoes -10.7236
2476
root 7.43169 15.8374 -5.53784 -167.372 -170.732 -181.066
lowerback 16.9512 -3.26836 3.9901
upperback 1.63802 -3.20655 4.45422
thorax -7.70183 -1.60782 3.28255
lowerneck 2.82482 -10.9215 -10.965
upperneck -21.4361 -13.4753 16.1816
head -4.85985 -7.16703 7.41847
rclavicle 2.3059e-014 -1.19271e-014
rhumerus -29.0091 -36.6571 -26.5353
rradius 101.022
rwrist 8.20242
rhand -2.84737 14.6259
rfingers 7.12502
rthumb 22.8604 -14.0392
lclavicle 2.3059e-014 -1.19271e-014
lhumerus -48.7867 32.4854 44.0284
lradius 105.753
lwrist -52.6226
lhand 4.1345 54.594
lfingers 7.12502
lthumb 29.5441 82.2629
rfemur -39.8461 8.69208 14.8031
rtibia 43.7266
rfoot -11.4775 -16.8283
rtoes -17.4623
lfemur -34.1242 -12.8018 0.0239864
ltibia 40.0675
lfoot -16.5989 14.5956
ltoes -15.7154
2477
root 7.40168 15.8368 -5.53231 -167.318 -170.719 -181.205
lowerback 16.8816 -3.23885 4.1965
upperback 1.71546 -3.1376 4.47221
thorax -7.59117 -1.58105 3.16078
lowerneck 2.81923 -10.9804 -10.7767
upperneck -21.5854 -13.5445 16.108
head -4.91667 -7.21004 7.37643
rclavicle 1.59028e-015 -3.02153e-014
rhumerus -28.6634 -36.6416 -26.9974
rradius 100.965
rwrist 8.25423
rhand -2.9148 14.2667
rfingers 7.12502
rthumb 22.7957 -14.4063
lclavicle 1.59028e-015 -3.02153e-014
lhumerus -48.4577 32.7038 44.1811
lradius 105.681
lwrist -52.6305
lhand 3.78417 53.9513
lfingers 7.12502
lthumb 29.2096 81.6788
rfemur -39.8 8.83246 15.0397
rtibia 43.6085
rfoot -11.1506 -17.2525
rtoes -19.1521
lfemur -34.0033 -12.5993 0.28769
ltibia 39.8642
lfoot -15.9525 14.9154
ltoes -20.0373
2478
root 7.37325 15.8414 -5.52763 -167.407 -170.76 -181.168
lowerback 17.0031 -3.25975 4.30506
upperback 1.72051 -3.14001 4.41166
thorax -7.66193 -1.58579 3.04304
lowerneck 3.32891 -10.9875 -11.0927
upperneck -21.9115 -13.5432 16.552
head -5.03635 -7.23681 7.62287
rclavicle -3.26007e-014 4.77083e-015
rhumerus -28.5979 -36.3933 -27.204
rradius 100.983
rwrist 8.23581
rhand -2.86153 14.1165
rfingers 7.12502
rthumb 22.8469 -14.5502
lclavicle -3.26007e-014 4.77083e-015
lhumerus -48.4066 32.7011 44.0938
lradius 105.73
lwrist -52.6215
lhand 4.11085 53.9503
lfingers 7.12502
lthumb 29.5215 81.6231
rfemur -39.6633 8.78361 15.164
rtibia 43.62
rfoot -11.0479 -17.3859
rtoes -19.8898
lfemur -33.7306 -12.6095 0.362976
ltibia 39.5907
lfoot -15.9394 14.7001
ltoes -20.577
2479
root 7.34727 15.846 -5.52601 -167.468 -170.892 -180.923
lowerback 17.2035 -3.34856 4.23237
upperback 1.60305 -3.2515 4.36054
thorax -7.89722 -1.63695 3.07567
lowerneck 3.70884 -10.8832 -11.2479
upperneck -22.0799 -13.4235 16.6489
head -5.14871 -7.18358 7.72109
rclavicle 3.81667e-014 -4.92986e-014
rhumerus -28.3799 -35.9987 -27.3358
rradius 100.879
rwrist 8.36381
rhand -2.84852 14.3361
rfingers 7.12502
rthumb 22.8593 -14.3291
lclavicle 3.81667e-014 -4.92986e-014
lhumerus -48.6051 32.6241 43.9364
lradius 105.823
lwrist -52.6114
lhand 4.63253 54.6014
lfingers 7.12502
lthumb 30.0194 82.1851
rfemur -39.6627 8.59547 15.0395
rtibia 43.7472
rfoot -11.3239 -17.295
rtoes -19.4993
lfemur -33.5989 -12.7931 0.26889
ltibia 39.2749
lfoot -16.0329 14.3493
ltoes -19.1937
2480
root 7.32571 15.8496 -5.52861 -167.328 -170.997 -180.813
lowerback 17.2866 -3.40344 4.20081
upperback 1.47234 -3.31202 4.40217
thorax -8.08032 -1.66374 3.16676
lowerneck 3.5418 -10.8233 -11.0093
upperneck -21.8751 -13.3717 16.2661
head -5.11957 -7.13794 7.54018
rclavicle 6.83819e-014 -5.96354e-014
rhumerus -28.0822 -35.5353 -27.5185
rradius 100.827
rwrist 8.26383
rhand -2.58962 14.3284
rfingers 7.12502
rthumb 23.1078 -14.3059
lclavicle 6.83819e-014 -5.96354e-014
lhumerus -48.7416 32.6418 44.0137
lradius 105.961
lwrist -52.5955
lhand 4.79965 55.1142
lfingers 7.12502
lthumb 30.1789 82.6689
rfemur -39.9032 8.53287 14.9917
rtibia 43.935
rfoot -11.6587 -17.0205
rtoes -18.5129
lfemur -33.6644 -12.8936 0.365613
ltibia 38.9171
lfoot -16.1337 13.8367
ltoes -16.0607
2481
root 7.30696 15.8551 -5.52463 -167.243 -170.995 -180.635
lowerback 17.171 -3.36673 4.02353
upperback 1.50729 -3.30773 4.41066
thorax -7.96764 -1.65627 3.26388
lowerneck 3.4332 -10.7984 -10.7436
upperneck -21.8646 -13.3464 15.988
head -5.14797 -7.11928 7.40625
rclavicle -9.54166e-015 -1.98785e-014
rhumerus -27.9084 -35.2777 -27.6448
rradius 100.91
rwrist 8.01424
rhand -2.39892 14.0837
rfingers 7.12502
rthumb 23.2907 -14.5275
lclavicle -9.54166e-015 -1.98785e-014
lhumerus -48.6183 32.759 44.1813
lradius 105.956
lwrist -52.4985
lhand 4.60836 54.8707
lfingers 7.12502
lthumb 29.9964 82.4586
rfemur -40.0584 8.52873 14.8628
rtibia 44.0846
rfoot -11.7244 -16.9529
rtoes -18.6083
lfemur -33.5863 -12.9645 0.330927
ltibia 38.5527
lfoot -16.7119 13.1481
ltoes -11.5061
2482
root 7.28928 15.8592 -5.51474 -167.223 -171.029 -180.491
lowerback 16.9669 -3.35621 3.92358
upperback 1.59698 -3.33305 4.41048
thorax -7.751 -1.66649 3.30572
lowerneck 3.55425 -10.7327 -10.7107
upperneck -21.9937 -13.2664 15.9285
head -5.22749 -7.08058 7.40337
rclavicle 1.86858e-014 -1.74931e-014
rhumerus -27.6715 -35.1849 -27.7552
rradius 100.86
rwrist 8.01223
rhand -2.82187 14.0785
rfingers 7.12502
rthumb 22.8849 -14.5836
lclavicle 1.86858e-014 -1.74931e-014
lhumerus -48.5831 32.9462 44.175
lradius 105.896
lwrist -52.5782
lhand 4.42163 54.6482
lfingers 7.12502
lthumb 29.8182 82.2682
rfemur -40.0872 8.49275 14.7773
rtibia 44.1664
rfoot -11.4898 -17.1966
rtoes -19.1468
lfemur -33.474 -13.015 0.270915
ltibia 38.2133
lfoot -16.7292 13.0656
ltoes -11.1525
